<svg width="26" height="26" viewBox="0 0 26 26" fill="none" xmlns="http://www.w3.org/2000/svg">
<path d="M20.5833 20.5833H5.41667V5.41667H20.5833M20.5833 3.25H5.41667C4.84203 3.25 4.29093 3.47827 3.8846 3.8846C3.47827 4.29093 3.25 4.84203 3.25 5.41667V20.5833C3.25 21.158 3.47827 21.7091 3.8846 22.1154C4.29093 22.5217 4.84203 22.75 5.41667 22.75H20.5833C21.158 22.75 21.7091 22.5217 22.1154 22.1154C22.5217 21.7091 22.75 21.158 22.75 20.5833V5.41667C22.75 4.84203 22.5217 4.29093 22.1154 3.8846C21.7091 3.47827 21.158 3.25 20.5833 3.25ZM15.1233 13.3142L12.1442 17.1492L10.0208 14.5925L7.04167 18.4167H18.9583L15.1233 13.3142Z" fill="#181602"/>
</svg>
